<?xml version="1.0" encoding="utf-8"?>
<!-- Generator: Adobe Illustrator 19.0.0, SVG Export Plug-In . SVG Version: 6.00 Build 0)  -->
<svg version="1.1" id="Layer_1" xmlns="http://www.w3.org/2000/svg" xmlns:xlink="http://www.w3.org/1999/xlink" x="0px" y="0px"
	 viewBox="551.8 348.8 204 42" style="enable-background:new 551.8 348.8 204 42;" xml:space="preserve">
<style type="text/css">
	.st0{fill-rule:evenodd;clip-rule:evenodd;fill:#02983B;}
	.st1{fill:#02983B;}
	.st2{fill:#9E9E9F;}
</style>
<g>
	<title>credit-card-processing-transaction-flow-how-it-works</title>
	<path id="XMLID_1223_" class="st0" d="M693.3,360.2c1.8-1.6,3.6-3.4,5.7-4.9c1.3-0.9,2.8-1.9,4.2-2.4c0.7-0.3,1.2-0.4,1.2-0.5
		c0-0.3-0.9-0.4-2-0.4c-2.9,0.3-7.6,4.1-9.6,6c-1.3,1.2-2.5,2.2-3.6,2.9c-0.3,0.2-1.8,1-2.7,1.1c-0.3,0-0.4,0.2,0,0.3
		c0.7,0.1,1.6,0.1,2.3,0C690.9,362,691.8,361.5,693.3,360.2z"/>
	<path id="XMLID_1222_" class="st0" d="M695.2,363c1.8-1.6,3.6-3.4,5.7-4.9c1.3-0.9,2.8-1.9,4.2-2.4c0.7-0.3,1.2-0.4,1.2-0.5
		c0-0.3-0.9-0.4-2-0.4c-2.9,0.3-7.6,4.1-9.6,6c-1.3,1.2-2.4,2.2-3.6,2.9c-0.3,0.2-1.8,1-2.7,1.1c-0.3,0-0.4,0.2,0,0.3
		c0.7,0.1,1.6,0.1,2.3,0C692.9,364.8,693.7,364.3,695.2,363z"/>
	<path id="XMLID_1219_" class="st1" d="M566.1,386.5c-6,0.3-8.9-5.2-8.6-16.2c-0.3-11.4,2.6-16.8,8.6-16.4c6-0.4,8.9,5.1,8.6,16.4
		C575,381.4,572.1,386.8,566.1,386.5L566.1,386.5z M566.1,387.3c4.8,0,8.7-2.2,11.5-6.7c2-3.5,2.9-7,2.9-10.6
		c-0.1-4.8-1.7-9.1-4.7-12.7c-2.7-3.1-6-4.7-9.8-4.7c-3.8,0-7.1,1.6-10,4.9c-2.7,3.5-4.2,7.7-4.3,12.5c0,4.4,1.2,8.3,3.5,11.7
		C558.1,385.5,561.7,387.3,566.1,387.3z"/>
	<path id="XMLID_1207_" class="st2" d="M584,374.5c0.3,4.8,2.5,7.2,6.6,7.4c2.4,0,3.7-0.6,3.9-1.7c0-0.7-0.3-1.1-0.9-1.1
		c-0.2,0-0.5,0.1-1,0.3c-0.7,0.4-1.4,0.5-2.1,0.5c-2.6-0.1-4-1.9-4.2-5.4c0.2-3.5,1.6-5.3,4.2-5.4c0.6,0,1.3,0.1,1.9,0.4
		c0.4,0.2,0.8,0.3,1.1,0.3c0.6-0.1,0.9-0.4,1-1.1c-0.2-1.2-1.6-1.8-4-1.8C586.4,367.1,584.2,369.6,584,374.5L584,374.5z
		 M608.9,375.4c0.9,0.1,1.4-0.4,1.3-1.3c-0.4-4.5-2.5-7-6.3-7.2c-4,0.3-6.2,2.8-6.6,7.6c0.2,4.8,2.5,7.3,6.7,7.4
		c3.2-0.2,5.2-1.2,5.9-2.8c0-0.7-0.3-1.1-1-1.1c-0.2,0-0.5,0.2-1,0.5c-1.2,0.9-2.6,1.4-4,1.4c-2.7-0.1-4.2-1.6-4.3-4.4H608.9
		L608.9,375.4z M599.7,373.6c0.2-3,1.6-4.5,4.2-4.5c2.4,0.1,3.7,1.7,3.9,4.5H599.7L599.7,373.6z M626.1,368.1c0-0.7-0.4-1.1-1.1-1.2
		c-0.8,0.1-1.2,0.5-1.2,1.2v0.8l0,0c-1.3-1.3-2.6-1.9-4-1.9c-4,0.3-6.2,2.8-6.5,7.6c0.3,4.8,2.5,7.2,6.5,7.4c1.6,0.1,2.9-0.6,4-2.1
		l0,0v1.1c0,0.7,0.4,1,1.2,1c0.7,0,1-0.3,1.1-1V368.1L626.1,368.1z M615.7,374.5c0.1-3.5,1.5-5.3,4.1-5.4c2.5,0.1,3.9,1.9,4,5.4
		c-0.1,3.5-1.5,5.3-4,5.4C617.2,379.7,615.9,377.9,615.7,374.5L615.7,374.5z M630.7,380.7c0,0.7,0.4,1.1,1.2,1.1
		c0.8,0,1.2-0.4,1.2-1.1v-8.1c0.1-2.2,1.2-3.4,3.5-3.6c2.2,0.1,3.3,1.3,3.4,3.6v8.1c0,0.7,0.4,1.1,1.3,1.1c0.8,0,1.2-0.4,1.2-1.1
		v-8.2c-0.1-3.5-1.8-5.3-5.1-5.6c-1.7,0-3.1,0.6-4.1,1.9h-0.1v-0.6c0-0.9-0.4-1.3-1.2-1.3c-0.8,0-1.2,0.4-1.2,1.3V380.7L630.7,380.7
		z M702.7,380.7c0,0.7,0.4,1.1,1.3,1.1c0.8,0,1.2-0.4,1.2-1.1v-8.3c0.1-2.2,1.1-3.3,3.1-3.4c2,0.1,3.1,1.2,3.1,3.4v8.3
		c0,0.7,0.4,1.1,1.2,1.1c0.9,0,1.3-0.4,1.3-1.1v-8.2c-0.1-3.5-1.9-5.3-5.2-5.6c-1.8,0-3.3,0.8-4.4,2.5c-1.1-1.7-2.5-2.5-4.1-2.5
		c-1.6,0-2.8,0.6-3.7,1.8l-0.1-0.1v-0.4c0-0.9-0.4-1.3-1.2-1.3c-0.8,0-1.2,0.4-1.2,1.3v12.6c0,0.7,0.4,1.1,1.2,1.1
		c0.8,0,1.2-0.4,1.2-1.1v-8.3c0.1-2.2,1.1-3.3,3.1-3.4c2,0.1,3.1,1.2,3.1,3.4V380.7L702.7,380.7z M729.2,375.4
		c0.9,0.1,1.4-0.4,1.3-1.3c-0.4-4.5-2.5-7-6.3-7.2c-4,0.3-6.2,2.8-6.6,7.6c0.2,4.8,2.5,7.3,6.7,7.4c3.2-0.2,5.2-1.2,5.9-2.8
		c0-0.7-0.3-1.1-1-1.1c-0.2,0-0.5,0.2-1,0.5c-1.2,0.9-2.6,1.4-4,1.4c-2.7-0.1-4.2-1.6-4.3-4.4H729.2L729.2,375.4z M720,373.6
		c0.2-3,1.6-4.5,4.2-4.5c2.4,0.1,3.7,1.7,3.9,4.5H720L720,373.6z M734.2,380.7c0,0.7,0.4,1.1,1.2,1.1c0.8,0,1.2-0.4,1.2-1.1v-8.1
		c0.1-2.2,1.2-3.4,3.5-3.6c2.2,0.1,3.3,1.3,3.4,3.6v8.1c0,0.7,0.4,1.1,1.3,1.1c0.8,0,1.2-0.4,1.2-1.1v-8.2c-0.1-3.5-1.8-5.3-5.1-5.6
		c-1.7,0-3.1,0.6-4.1,1.9h-0.1v-0.6c0-0.9-0.4-1.3-1.2-1.3c-0.8,0-1.2,0.4-1.2,1.3V380.7L734.2,380.7z M751.2,367.1h-1
		c-0.8,0-1.2,0.4-1.2,1.1c0,0.6,0.4,1,1.2,1h1v11.6c0,0.7,0.4,1.1,1.2,1.1c0.9,0,1.3-0.4,1.3-1.1v-11.6h1c0.8,0,1.2-0.3,1.2-1
		c0-0.7-0.4-1.1-1.2-1.1h-1v-3.2c-0.1-0.8-0.5-1.2-1.3-1.3c-0.8,0-1.2,0.4-1.2,1.3V367.1z"/>
	<path id="XMLID_1201_" class="st1" d="M649.2,374.5c0.1-3.5,1.5-5.3,4-5.4c2.6,0.1,4,1.9,4.1,5.4c-0.1,3.5-1.5,5.3-4.1,5.4
		C650.7,379.7,649.4,377.9,649.2,374.5L649.2,374.5z M647,386.3c0,0.9,0.4,1.3,1.2,1.3c0.8,0,1.2-0.4,1.2-1.3V380h0.1
		c0.9,1.2,2.2,1.8,3.9,1.8c3.9-0.2,6-2.7,6.3-7.4c-0.3-4.8-2.4-7.3-6.3-7.6c-1.9,0-3.2,0.7-3.9,2.1h-0.1v-0.8c0-0.9-0.4-1.3-1.2-1.3
		c-0.8,0-1.2,0.4-1.2,1.3V386.3L647,386.3z M675.8,368.1c0-0.7-0.4-1.1-1.1-1.2c-0.8,0.1-1.2,0.5-1.2,1.2v0.8l0,0
		c-1.3-1.3-2.6-1.9-4-1.9c-4,0.3-6.2,2.8-6.5,7.6c0.3,4.8,2.5,7.2,6.5,7.4c1.6,0.1,2.9-0.6,4-2.1l0,0v1.1c0,0.7,0.4,1,1.2,1
		c0.7,0,1-0.3,1.1-1V368.1L675.8,368.1z M665.4,374.5c0.1-3.5,1.5-5.3,4.1-5.4c2.5,0.1,3.9,1.9,4,5.4c-0.1,3.5-1.5,5.3-4,5.4
		C666.9,379.7,665.6,377.9,665.4,374.5L665.4,374.5z M683.8,381.3l-1.6,3.9c-0.1,0.2-0.1,0.4-0.2,0.6c-0.1,0.4-0.1,0.6-0.1,0.8
		c0.1,0.6,0.4,0.9,1.1,1c0.6,0,1-0.3,1.2-0.9l6.2-17.4c0.2-0.5,0.3-0.9,0.3-1.3c-0.1-0.7-0.4-1-1.1-1.1c-0.6,0-1,0.3-1.2,1
		l-3.2,10.1H685l-3.4-10.1c-0.3-0.7-0.7-1-1.2-1c-0.7,0.1-1.1,0.4-1.2,1.1c0,0.1,0.1,0.4,0.2,1c0-0.1,0,0,0.1,0.3L683.8,381.3z"/>
</g>
</svg>
